<svg width="180" height="180" viewBox="0 0 180 180" fill="none" xmlns="http://www.w3.org/2000/svg">
<rect width="180" height="180" fill="black"/>
<circle cx="90" cy="90" r="40" fill="black"/>
<path d="M119.2 59.3C115 57 110.7 55.1 106.3 53.6C102 52.1 97.95 51.35 94.15 51.35C89.45 51.35 85.75 52.3 83.05 54.2C80.35 56.1 79 58.95 79 62.75C79 65.35 80 67.7 82 69.8C84.1 71.8 86.75 73.6 89.95 75.2C93.25 76.8 96.65 78.25 100.15 79.55C103.35 80.75 106.5 82.2 109.6 83.9C112.8 85.5 115.65 87.55 118.15 90.05C120.65 92.45 122.65 95.5 124.15 99.2C125.65 102.8 126.4 107.25 126.4 112.55C126.4 118.15 124.95 123.35 122.05 128.15C119.15 132.95 114.9 136.85 109.3 139.85C103.7 142.75 96.8 144.2 88.6 144.2C84.4 144.2 80.1 143.8 75.7 143C71.4 142.1 67.15 140.8 62.95 139.1C58.75 137.3 54.7 135.05 50.8 132.35L60.4 115.4C63 117.3 65.8 119 68.8 120.5C71.9 121.9 75 123 78.1 123.8C81.2 124.6 84.05 125 86.65 125C89.25 125 91.85 124.65 94.45 123.95C97.15 123.15 99.35 121.85 101.05 120.05C102.85 118.25 103.75 115.75 103.75 112.55C103.75 110.35 103 108.35 101.5 106.55C100.1 104.75 98.15 103.1 95.65 101.6C93.25 100.1 90.6 98.8 87.7 97.7C84.3 96.4 80.8 94.9 77.2 93.2C73.6 91.5 70.2 89.45 67 87.05C63.9 84.55 61.35 81.5 59.35 77.9C57.45 74.2 56.5 69.7 56.5 64.4C56.5 58 57.9 52.45 60.7 47.75C63.6 43.05 67.65 39.35 72.85 36.65C78.05 33.85 84.05 32.3 90.85 32C99.75 32 106.95 33.05 112.45 35.15C118.05 37.25 123.05 39.75 127.45 42.65L119.2 59.3Z" fill="white"/>
</svg>
